<svg xmlns="http://www.w3.org/2000/svg" viewBox="0 0 220.2 152.29"><title>Asset 6</title><g id="Layer_2" data-name="Layer 2"><g id="NMK_2" data-name="NMK 2"><path d="M74,149.59q.17-28,.21-56t0-55.91q0-15.78,0-31.56a1.5,1.5,0,0,0-3,0q0,28.08,0,56.17,0,27.93-.1,55.86Q71,133.87,71,149.59a1.5,1.5,0,0,0,3,0Z"/><path d="M71.3,3.39,85.51,59.86l14.21,56.47,8.06,32c.47,1.87,3.36,1.08,2.89-.8L96.45,91.05,82.24,34.58l-8-32c-.47-1.87-3.37-1.08-2.89.8Z"/><path d="M142.93,7.42c.12,18.65-.11,37.3-.37,56s-.56,37.19-.57,55.79q0,15.72.31,31.43c0,1.93,3,1.94,3,0-.41-18.65-.36-37.31-.16-56s.54-37.19.72-55.79q.13-15.7.07-31.41a1.5,1.5,0,0,0-3,0Z"/><path d="M143.19,5.57,129.1,61.7,115,118.07l-8,31.69c-.47,1.88,2.42,2.67,2.89.8L124,94.43l14.16-56.37,8-31.69c.47-1.88-2.42-2.68-2.9-.8Z"/><path d="M69,3.55c.11,19.07.63,38.14,1.26,57.2s1.35,37.87,1.87,56.82q.43,16,.62,31.94a1.5,1.5,0,0,0,3,0c-.19-18.85-.75-37.7-1.39-56.54C73.68,74,73,55,72.48,36Q72.07,19.76,72,3.55a1.5,1.5,0,0,0-3,0Z"/><path d="M71.31,5.18,84.57,62l13.25,56.82,7.48,32.06c.43,1.88,3.33,1.08,2.89-.8L94.93,93.26,81.68,36.44,74.2,4.38c-.43-1.88-3.33-1.08-2.89.8Z"/><path d="M72.45,15.22c.7,17.44,1.12,34.89,1.48,52.35s.66,35,1.09,52.54q.36,14.7.9,29.38c.07,1.93,3.07,1.94,3,0-.65-17.38-1-34.77-1.4-52.16s-.65-35.07-1.11-52.6Q76,30,75.45,15.22c-.08-1.93-3.08-1.94-3,0Z"/><path d="M110.83,140.42c4.08-17.7,8.68-35.27,13.42-52.8s9.66-35,14.35-52.59c2.65-9.9,5.23-19.82,7.67-29.78.47-1.87-2.43-2.67-2.89-.79-4.35,17.7-9.12,35.29-13.94,52.87s-9.66,35-14.2,52.56q-3.84,14.82-7.3,29.73c-.43,1.88,2.46,2.68,2.89.8Z"/><path d="M144.75,4.82c-1,18.85-1.42,37.72-1.71,56.6s-.41,37.77-.76,56.66c-.2,10.6-.47,21.2-.87,31.79-.07,1.93,2.93,1.93,3,0,.72-18.79,1-37.59,1.23-56.39s.4-37.82.9-56.72c.28-10.65.66-21.3,1.21-31.94.1-1.93-2.9-1.92-3,0Z"/><path d="M108.19,142.39c5-17,9.61-34,14.18-51s9-34,13.61-51q3.93-14.52,8-29a1.5,1.5,0,0,0-2.89-.79c-4.84,17-9.44,34.14-14,51.25s-9,34-13.67,50.91q-4,14.44-8.15,28.84c-.55,1.86,2.35,2.65,2.89.8Z"/><path d="M144.74,4.83q-.28,28.55-.37,57.08-.09,28.35,0,56.72,0,16.08.12,32.16a1.5,1.5,0,0,0,3,0q-.14-28.41-.15-56.82t.15-56.79q.09-16.18.26-32.35a1.5,1.5,0,0,0-3,0Z"/><path d="M2.36,7.12c0,18.73-.38,37.45-.78,56.18S.71,100.53.39,119.15Q.14,134.86,0,150.56a1.5,1.5,0,0,0,3,0c.08-18.66.43-37.31.84-56s.87-37.27,1.17-55.9q.25-15.79.31-31.57a1.5,1.5,0,0,0-3,0Z"/><path d="M76,150l-.23-55.33-.23-55.07L75.38,8.42a1.5,1.5,0,0,0-3,0l.23,55.33.23,55.08L73,150a1.5,1.5,0,0,0,3,0Z"/><path d="M6.17,8.91Q21.55,35.27,34.92,62.73t24.56,55.69q6.3,15.92,11.94,32.09c.63,1.81,3.53,1,2.89-.8Q64.24,120.82,52,92.74T25.5,37.53Q17.46,22.29,8.76,7.4A1.5,1.5,0,0,0,6.17,8.91Z"/><path d="M2.19,8.42C1.82,26.81,1.9,45.2,2.12,63.59s.58,37,.77,55.53c.1,10.45.16,20.9.1,31.36a1.5,1.5,0,0,0,3,0c.1-18.61-.15-37.22-.43-55.83C5.29,76.2,5,57.76,4.94,39.3q0-15.43.25-30.88c0-1.93-3-1.93-3,0Z"/><path d="M7.44,9,33,63.63l25.56,54.65L72.91,149c.82,1.75,3.4.22,2.59-1.52L49.94,92.83,24.39,38.18,10,7.47C9.21,5.72,6.62,7.24,7.44,9Z"/><path d="M76.86,150,75.71,93.62,74.56,37.51,73.91,5.85c0-1.93-3-1.94-3,0L72.07,62.2l1.15,56.1L73.86,150c0,1.93,3,1.93,3,0Z"/><path d="M3.44,7.12q.48,28.08,1,56.18Q5,91.23,5.55,119.15q.3,15.71.61,31.42c0,1.93,3,1.94,3,0q-.54-28-1.1-56T7,38.69Q6.72,22.9,6.44,7.12c0-1.93-3-1.94-3,0Z"/><path d="M7.28,7.75l18,36.46c.86,1.73,3.45.21,2.59-1.51L9.87,6.23C9,4.5,6.43,6,7.28,7.75Z"/><path d="M74.6,141.67Q64.18,113.19,51.75,85.48T24.94,31Q16.87,16,8.2,1.27a1.52,1.52,0,0,0-2.74.36L2.53,11.06c-.58,1.84,2.32,2.63,2.89.79L8.35,2.42l-2.74.36q15.32,26,28.77,53t25,54.93q6.49,15.78,12.36,31.79c.65,1.8,3.55,1,2.89-.79Z"/><path d="M5.75,5.92c0-.07-.19-.39-.07-.12s0-.07,0-.14a3.87,3.87,0,0,1-.13-.59l0,.4a4.79,4.79,0,0,1,0-1.07l0,.39A3.53,3.53,0,0,1,5.68,4a1.59,1.59,0,0,1,.07-.2c.09-.25-.16.34,0,.11s.13-.26.21-.38A1,1,0,0,1,6,3.37c0-.05.19-.27,0,0s0,0,0,0l.14-.15a3.71,3.71,0,0,1,.29-.27c.11-.1-.34.23-.09.07a1.37,1.37,0,0,0,.2-.13,1.51,1.51,0,0,0,.54-2A1.53,1.53,0,0,0,5.1.23a5.51,5.51,0,0,0-1.94,7.2A1.5,1.5,0,0,0,5.21,8a1.53,1.53,0,0,0,.54-2Z"/><path d="M72.38,137.7l.19-52,.18-52,.1-29.5a1.5,1.5,0,0,0-3,0l-.18,52-.18,52-.11,29.49a1.5,1.5,0,0,0,3,0Z"/><path d="M141.39,10.53c1.09,18.3,1.18,36.63,1,55-.17,18.11-.59,36.22-.45,54.33.08,10.23.34,20.46.91,30.68.11,1.92,3.11,1.93,3,0-1-18.07-1-36.18-.84-54.28s.59-36.35.4-54.52c-.11-10.4-.41-20.79-1-31.17-.12-1.92-3.12-1.93-3,0Z"/><path d="M149.22,77.44,202.35,23.3,217.39,8c1.35-1.38-.77-3.51-2.12-2.13L162.13,60l-15,15.32c-1.36,1.38.76,3.5,2.12,2.12Z"/><path d="M147.78,78.43,198.47,134l14.31,15.7c1.31,1.42,3.42-.7,2.12-2.13L164.22,92,149.9,76.31c-1.3-1.43-3.42.7-2.12,2.12Z"/><path d="M147.46,146.66c-.09-17.76-.14-35.52-.32-53.28s-.49-35.53-1.09-53.29Q145.54,25,144.73,9.88c-.11-1.92-3.11-1.93-3,0,1,17.85,1.58,35.71,2,53.59s.53,35.47.63,53.2q.08,15,.14,30a1.5,1.5,0,0,0,3,0Z"/><path d="M150.58,150.59l-1.22-56.37L148.15,38.1l-.69-31.68c0-1.93-3-1.93-3,0l1.22,56.37,1.21,56.13.69,31.67c0,1.93,3,1.94,3,0Z"/><path d="M145.51,146.69v3.89a1.5,1.5,0,1,0,3,0v-3.89a1.5,1.5,0,0,0-3,0Z"/><path d="M148.86,74.53l54.61-53.69L218.94,5.62c1.38-1.36-.74-3.48-2.12-2.12l-54.6,53.69L146.74,72.41c-1.38,1.35.75,3.47,2.12,2.12Z"/><path d="M150.42,77l51.35,56.9L216.32,150c1.3,1.44,3.41-.69,2.12-2.12L167.09,91,152.54,74.86c-1.3-1.44-3.41.69-2.12,2.12Z"/><path d="M149.39,72.19,204.29,19,219.73,4c1.39-1.34-.74-3.46-2.12-2.12L162.7,55.11l-15.43,15c-1.39,1.35.73,3.47,2.12,2.12Z"/><path d="M209.09,144.88a16.39,16.39,0,0,0,6.32,6.47,1.5,1.5,0,1,0,1.51-2.59c-.3-.17-.6-.35-.89-.54l-.4-.28-.23-.16s-.27-.2-.07-.06l-.08-.06-.22-.18-.36-.31-.76-.73c-.23-.24-.45-.49-.67-.74l-.33-.41c-.17-.21.14.19,0,0a1.33,1.33,0,0,1-.14-.19,13.65,13.65,0,0,1-1.12-1.78,1.51,1.51,0,0,0-2.05-.53,1.54,1.54,0,0,0-.54,2Z"/><path d="M144.1,11.65l1.62-5.6a1.5,1.5,0,1,0-2.9-.8l-1.61,5.6a1.5,1.5,0,0,0,2.89.8Z"/><path d="M4.42,145.79v3.59a1.54,1.54,0,0,0,.44,1.06,1.5,1.5,0,0,0,2.56-1.06v-3.59A1.58,1.58,0,0,0,7,144.73a1.5,1.5,0,0,0-2.56,1.06Z"/><path d="M5.77,145.78a1.5,1.5,0,0,0,0-3,1.5,1.5,0,0,0,0,3Z"/><path d="M1.5,152l3.35.2a5.64,5.64,0,0,0,3.42-.44,1.5,1.5,0,0,0-1.51-2.59l-.17.1.14-.06a1.38,1.38,0,0,0-.32.07l.16,0H6.42a1.4,1.4,0,0,1-.29,0c-.51,0-1,0-1.51-.08L1.5,149a1.51,1.51,0,0,0-1.5,1.5A1.54,1.54,0,0,0,1.5,152Z"/><path d="M.22,150.4a1.84,1.84,0,0,0,.22.84,1.81,1.81,0,0,0,.59.61,2.05,2.05,0,0,0,1.05.29c.33,0,.68,0,1,0l2.13,0a1.57,1.57,0,0,0,1.07-.44,1.51,1.51,0,0,0-1.07-2.56l-1.65,0H2.75a6.77,6.77,0,0,1-.78,0l.4.06-.1,0,.35.15-.07-.05.3.24,0,0,.24.31,0,0,.15.36v0l.05.4v0a1.22,1.22,0,0,0-.13-.57,1.21,1.21,0,0,0-.31-.49,1.56,1.56,0,0,0-1.06-.44,1.54,1.54,0,0,0-1.06.44,1.45,1.45,0,0,0-.44,1.06Z"/><path d="M6.72,152.17l.09,0-.4,0c.25,0,.49.05.74,0a3.47,3.47,0,0,0,.45-.06h.07l.07,0,.41-.17.07,0,0,0a2.51,2.51,0,0,0,.32-.25l0-.05a3.81,3.81,0,0,0,.24-.32l0,0a1.16,1.16,0,0,0,.18-.56,1.22,1.22,0,0,0,0-.6,1.26,1.26,0,0,0-.27-.51,1.31,1.31,0,0,0-.42-.39L8,149a1.55,1.55,0,0,0-.8,0l-.35.15a1.55,1.55,0,0,0-.54.54l0,.05.23-.31a.23.23,0,0,1-.07.07l.31-.23-.12.07.36-.16a.61.61,0,0,1-.18.05l.39-.05a1.89,1.89,0,0,1-.41,0,2.44,2.44,0,0,0-.85.06,1.26,1.26,0,0,0-.51.27A1.18,1.18,0,0,0,5,150a1.12,1.12,0,0,0-.18.56,1,1,0,0,0,0,.6l.15.36a1.5,1.5,0,0,0,.53.53l.36.16a1.55,1.55,0,0,0,.8,0Z"/><path d="M7.27,7.51a1.5,1.5,0,0,0,0-3,1.5,1.5,0,0,0,0,3Z"/><path d="M5.15,8.08a13.13,13.13,0,0,1,.09-2l0,.4a11.07,11.07,0,0,1,.33-1.62c.07-.26.15-.51.24-.77s.09-.23.13-.35.14-.32,0-.08,0-.06,0-.08a1.62,1.62,0,0,0,.16-1.16,1.59,1.59,0,0,0-.69-.9,1.54,1.54,0,0,0-2.06.54,13.48,13.48,0,0,0-1.22,6,1.52,1.52,0,0,0,1.5,1.5,1.52,1.52,0,0,0,1.5-1.5Z"/><path d="M5.36,5.41c.24-.78.44-1.59.75-2.34L6,3.43a3,3,0,0,1,.33-.58l-.23.31a1.52,1.52,0,0,1,.31-.31l-.31.23a1.77,1.77,0,0,1,.33-.19L6,3A1.58,1.58,0,0,1,6.34,3L5.94,3H6.2L5.8,3A1.05,1.05,0,0,1,6,3l-.36-.15L5.89,3l-.3-.24a1.37,1.37,0,0,1,.17.17l-.23-.3.12.2-.16-.36a.61.61,0,0,1,0,.18l0-.4a1.2,1.2,0,0,1,0,.19,1.46,1.46,0,0,0,.44,1.06A1.5,1.5,0,0,0,7,3.93a1.52,1.52,0,0,0,1.06-.44l.23-.3a1.45,1.45,0,0,0,.21-.76,2.05,2.05,0,0,0-.35-1.29,2.6,2.6,0,0,0-1.31-1,2.56,2.56,0,0,0-1.4,0,2.93,2.93,0,0,0-1.25.7,3,3,0,0,0-.69.89A6.1,6.1,0,0,0,3,2.76c-.2.61-.38,1.23-.58,1.85a1.51,1.51,0,0,0,1,1.84,1.53,1.53,0,0,0,1.85-1Z"/><path d="M70.34,147.25a6.39,6.39,0,0,0,.82,3,3.66,3.66,0,0,0,1.21,1.17,3.93,3.93,0,0,0,1.75.46,7.44,7.44,0,0,0,1.25-.09c.55-.06,1.12-.08,1.66-.19a2,2,0,0,0,1.54-1.5,3.6,3.6,0,0,0-.2-1.75l-1-3.14a1.5,1.5,0,0,0-2.9.8l.61,2,.3,1a5.88,5.88,0,0,1,.24.89l0-.4v.21l0-.39c0,.14,0,.09.1-.17a.71.71,0,0,1,.38-.34c.43-.25.17-.11,0-.08l.4-.06a11.05,11.05,0,0,1-2.69.19l.4.06-.38-.08c-.28-.09,0,0,.08,0s-.12-.07-.14-.08c-.24-.12.19.18.08.07l-.14-.13a1,1,0,0,1-.1-.11s.24.34.07.09a3.07,3.07,0,0,1-.17-.31c-.09-.18,0,.12.06.15a.86.86,0,0,1-.07-.21,4.55,4.55,0,0,1-.19-.89l0,.4c0-.19,0-.38-.07-.57a1.56,1.56,0,0,0-.44-1.06,1.54,1.54,0,0,0-1.06-.44c-.74,0-1.59.67-1.5,1.5Z"/><path d="M70.06,146.78a16.64,16.64,0,0,0,.52,2.08,6.47,6.47,0,0,0,1,2,2.74,2.74,0,0,0,.95.81,3,3,0,0,0,1.9.24,4.77,4.77,0,0,0,2.2-1.3,1.51,1.51,0,0,0,0-2.12,1.53,1.53,0,0,0-2.12,0l-.48.4.3-.23a3.3,3.3,0,0,1-.65.39l.35-.15a1.82,1.82,0,0,1-.4.11L74,149a2,2,0,0,1-.42,0l.4.05a1.92,1.92,0,0,1-.32-.09l.36.15a2,2,0,0,1-.25-.14l.31.23a1.92,1.92,0,0,1-.29-.28l.23.3a3,3,0,0,1-.38-.67l.15.36A14.28,14.28,0,0,1,73,146a1.54,1.54,0,0,0-.68-.9,1.62,1.62,0,0,0-1.16-.15,1.55,1.55,0,0,0-.9.69,1.72,1.72,0,0,0-.15,1.16Z"/><path d="M74.84,151.8l1.86-.21a3.1,3.1,0,0,0,1.23-.34,1.94,1.94,0,0,0,.94-1.66,3.3,3.3,0,0,0-.29-1.16l-.32-.9-.65-1.81a1.67,1.67,0,0,0-.69-.9,1.5,1.5,0,0,0-2.2,1.7l.62,1.72.31.87a5.88,5.88,0,0,1,.27.84l0-.4a.76.76,0,0,1,0,.15l0-.4,0,.07L76,149a.41.41,0,0,1-.05.09l.24-.3-.08.07.31-.24-.14.08.36-.15a1.23,1.23,0,0,1-.32.07l.4,0-1.92.22a1.66,1.66,0,0,0-1.06.44,1.52,1.52,0,0,0-.44,1.06,1.54,1.54,0,0,0,.44,1.06,1.44,1.44,0,0,0,1.06.44Z"/><path d="M73.48,148.66a5.33,5.33,0,0,0,.1-1,6.27,6.27,0,0,0-.15-1.07,4.85,4.85,0,0,0-.35-1,3.46,3.46,0,0,0-.36-.62,1,1,0,0,0-.38-.42,1.15,1.15,0,0,0-.51-.27,1.5,1.5,0,0,0-1.85,1,1.49,1.49,0,0,0,.15,1.15,3.36,3.36,0,0,1,.37.67l-.15-.36a4,4,0,0,1,.25.9l0-.4a3.62,3.62,0,0,1,0,.93l0-.4s0,.05,0,.08a1.22,1.22,0,0,0,0,.6,1.12,1.12,0,0,0,.18.56,1.52,1.52,0,0,0,.9.69,1.54,1.54,0,0,0,1.15-.15,1.45,1.45,0,0,0,.69-.9Z"/><path d="M57.67,116.55l13.42,32.9c.72,1.76,3.63,1,2.9-.8l-13.43-32.9c-.72-1.77-3.62-1-2.89.8Z"/><path d="M71.56,4.64a2.18,2.18,0,0,1,.22-.21l-.3.24A2.84,2.84,0,0,1,72,4.34l-.36.16a2.41,2.41,0,0,1,.65-.18l-.4,0a2.66,2.66,0,0,1,.49,0A1,1,0,0,0,73,4.23a1.11,1.11,0,0,0,.49-.31,1.17,1.17,0,0,0,.31-.48,1.27,1.27,0,0,0,.13-.58,1.54,1.54,0,0,0-.44-1.06l-.31-.23a1.42,1.42,0,0,0-.75-.21,4.75,4.75,0,0,0-.92.07,2.69,2.69,0,0,0-.54.14,4.18,4.18,0,0,0-.8.38,4.74,4.74,0,0,0-.51.37l-.22.19A1.56,1.56,0,0,0,69,3.57a1.27,1.27,0,0,0,.13.58,1.21,1.21,0,0,0,.31.49,1.52,1.52,0,0,0,1.06.43,1.58,1.58,0,0,0,1.07-.43Z"/><path d="M105.49,150.9a2.6,2.6,0,0,0,3.38.83,3.73,3.73,0,0,0,1.78-2.77,34.22,34.22,0,0,0,.71-6.92,1.51,1.51,0,0,0-1.5-1.5,1.54,1.54,0,0,0-1.5,1.5c0,.85,0,1.69-.1,2.54q0,.63-.12,1.26c0,.1,0,.21,0,.31s0,.24,0,.07c0,.24-.07.47-.11.71-.06.41-.14.82-.22,1.23,0,.17-.07.34-.12.5s-.06.17-.08.25.11-.17,0,0a1.48,1.48,0,0,0-.13.21c-.1.19.14-.17,0,0s.21-.13,0,0,.26-.12.08,0l-.1,0h0c.11,0,.13,0,0,0s-.07,0,.05,0,.13,0,0,0l0,0a1,1,0,0,1,.36.3,1.53,1.53,0,0,0-2-.53,1.51,1.51,0,0,0-.54,2.05Z"/><path d="M107.1,152a1.5,1.5,0,0,0,0-3,1.5,1.5,0,0,0,0,3Z"/><path d="M144.09,11.06l1-3.46a1.5,1.5,0,0,0-1-1.85,1.54,1.54,0,0,0-1.85,1l-1,3.46a1.51,1.51,0,0,0,.15,1.16,1.5,1.5,0,0,0,2.74-.36Z"/><path d="M145.09,7.5a9.27,9.27,0,0,1,.36-1l-.15.36a3.88,3.88,0,0,1,.46-.85l-.24.31A1.92,1.92,0,0,1,145.8,6l-.3.24a1.2,1.2,0,0,1,.24-.15l-.36.15a1.09,1.09,0,0,1,.31-.08l-.4.05a1,1,0,0,1,.24,0l-.4-.05.19.05L145,6l.12.07a1.09,1.09,0,0,0,.55.18,1.22,1.22,0,0,0,.6,0,1.52,1.52,0,0,0,.9-.69,1.54,1.54,0,0,0,.15-1.15,1.59,1.59,0,0,0-.69-.9,2.28,2.28,0,0,0-1.11-.33,1.84,1.84,0,0,0-.4,0,2.7,2.7,0,0,0-.41.07,2.92,2.92,0,0,0-1,.57,3.47,3.47,0,0,0-.53.61,5.66,5.66,0,0,0-.59,1.18,10,10,0,0,0-.36,1,1.56,1.56,0,0,0,.15,1.16,1.52,1.52,0,0,0,.9.69,1.54,1.54,0,0,0,1.15-.15,1.58,1.58,0,0,0,.69-.9Z"/><path d="M145.74,6.28h.52a1.08,1.08,0,0,0,.58-.13,1.14,1.14,0,0,0,.48-.31,1.11,1.11,0,0,0,.31-.48,1.15,1.15,0,0,0,.13-.58l-.06-.4a1.57,1.57,0,0,0-.38-.66L147,3.49a1.42,1.42,0,0,0-.75-.21h-.52a1.22,1.22,0,0,0-.57.13,1.32,1.32,0,0,0-.8.8,1.22,1.22,0,0,0-.13.57l.06.4a1.45,1.45,0,0,0,.38.66l.31.24a1.5,1.5,0,0,0,.75.2Z"/><path d="M141.71,149a2.07,2.07,0,0,0,.77,2.82,4.87,4.87,0,0,0,2.2.47,14.67,14.67,0,0,0,4-.31,1.52,1.52,0,0,0,1.05-1.85,1.54,1.54,0,0,0-1.85-1c-.33.07-.66.12-1,.17l.39,0a14,14,0,0,1-3.42,0l.4,0a1.56,1.56,0,0,1-.47-.1l.22.09c-.14-.08-.1-.05.12.1l.14.18c.09.25.12.3.08.16l.06.39a.61.61,0,0,1,0-.14l0,.4c0-.15,0-.09-.07.17a1.5,1.5,0,1,0-2.59-1.51Z"/><path d="M145.71,152a7.65,7.65,0,0,0,3.4,0,1.5,1.5,0,0,0,.36-2.74,1.61,1.61,0,0,0-1.16-.15,4.8,4.8,0,0,1-.57.11l.4-.06a5.74,5.74,0,0,1-1.55,0l.4.05-.48-.08a1.59,1.59,0,0,0-1.15.15,1.5,1.5,0,0,0-.54,2.05,1.47,1.47,0,0,0,.89.69Z"/><path d="M217.67,7.56l1.37-2c.21-.31.45-.61.63-.94a3.77,3.77,0,0,0,.32-.78,3.08,3.08,0,0,0,0-1.21,1.45,1.45,0,0,0-.69-.9,1.5,1.5,0,0,0-2.05.54l-.15.36a1.55,1.55,0,0,0,0,.8v.06l-.05-.4a2,2,0,0,1,0,.25l.05-.39a1.71,1.71,0,0,1-.09.3l.15-.35a9.45,9.45,0,0,1-1,1.55L215.08,6a1.51,1.51,0,0,0,.54,2.06,1.56,1.56,0,0,0,1.16.15,1.7,1.7,0,0,0,.89-.69Z"/><path d="M217.86,7.4l1.22-1.67a8.14,8.14,0,0,0,.5-.75A3.38,3.38,0,0,0,220,3.84a1.22,1.22,0,0,0,0-.6,1.12,1.12,0,0,0-.18-.56A1.52,1.52,0,0,0,219,2a1.49,1.49,0,0,0-1.15.15,1.45,1.45,0,0,0-.69.9,2.52,2.52,0,0,1-.13.47l.15-.36a7.07,7.07,0,0,1-.85,1.32l-1,1.41a1.5,1.5,0,0,0,.54,2.05,1.46,1.46,0,0,0,1.15.15l.36-.15a1.45,1.45,0,0,0,.54-.53Z"/><path d="M217.2,3.16a.17.17,0,0,1,0,.07l.06-.4a.75.75,0,0,1-.05.16l.15-.35a.64.64,0,0,1-.08.14l.23-.3-.06.06a1.21,1.21,0,0,0-.31.49,1.34,1.34,0,0,0,0,1.15,1.21,1.21,0,0,0,.31.49l.31.23a1.41,1.41,0,0,0,.75.2l.4,0a1.45,1.45,0,0,0,.66-.38s0,0,.05,0l.25-.33,0,0,.06-.11c.05-.13.11-.26.16-.38v0s0,0,0-.06,0-.18,0-.26l0-.27a1.11,1.11,0,0,0-.13-.57,1.21,1.21,0,0,0-.31-.49,1.24,1.24,0,0,0-.48-.31,1.29,1.29,0,0,0-.58-.13l-.4.06a1.45,1.45,0,0,0-.66.38l-.24.31a1.5,1.5,0,0,0-.2.75Z"/><path d="M212.9,149.81l1,.94a3.47,3.47,0,0,0,1.52.95,2.33,2.33,0,0,0,1.23,0,2.84,2.84,0,0,0,1-.59,3.58,3.58,0,0,0,.88-1.28,1.56,1.56,0,0,0,.15-1.16,1.49,1.49,0,0,0-.69-.89,1.5,1.5,0,0,0-2.05.54,4,4,0,0,1-.39.7l.24-.31a1.77,1.77,0,0,1-.3.31l.3-.23-.22.13.36-.15-.25.07.4,0h-.25l.4,0-.2,0,.36.15a1.65,1.65,0,0,1-.36-.22l.3.24c-.48-.38-.92-.83-1.37-1.25a1.56,1.56,0,0,0-1.06-.44,1.58,1.58,0,0,0-1.06.44,1.56,1.56,0,0,0-.44,1.06,1.54,1.54,0,0,0,.44,1.06Z"/></g></g></svg>