<svg xmlns="http://www.w3.org/2000/svg" viewBox="0 0 580.63 307.47"><title>Asset 8ge</title><g id="Layer_2" data-name="Layer 2"><g id="GE_1" data-name="GE 1"><path d="M285.73,13.27,258.86,68.14l-27,55.12L205,178.13l-27,55.13-26.87,54.87L147.8,295c-.85,1.72,1.74,3.25,2.59,1.51l26.87-54.87,27-55.12,26.86-54.88,27-55.12L285,21.61l3.35-6.83c.84-1.72-1.74-3.25-2.59-1.51Z"/><path d="M424.05,7.13l-27.76,56-27.75,56-27.75,56L312.9,231.45l-27.75,56-3.44,6.93c-.85,1.73,1.73,3.25,2.59,1.52l27.76-56,27.75-56,27.76-56L395.45,71.6l27.75-56,3.44-6.94c.85-1.73-1.73-3.25-2.59-1.52Z"/><path d="M396,155.43l68.43-.63,68.43-.64,38.45-.35a1.5,1.5,0,0,0,0-3l-68.42.63-68.43.64-38.46.35a1.5,1.5,0,0,0,0,3Z"/><path d="M177.16,152.64l-63.95-.41-63.95-.4-36-.23a1.5,1.5,0,0,0,0,3l64,.41,64,.4,36,.23a1.5,1.5,0,0,0,0-3Z"/><path d="M11.59,159.17l67,.22,66.74.22,37.75.12a4.5,4.5,0,0,0,0-9l-67-.22-66.74-.22-37.75-.12a4.5,4.5,0,0,0,0,9Z"/><path d="M392.56,158.66,463,157.18l70.64-1.48,39.69-.83a4.5,4.5,0,0,0,0-9l-70.39,1.48-70.64,1.48-39.69.83a4.5,4.5,0,0,0,0,9Z"/><path d="M280.81,10.47,254.66,65.55l-26.15,55.08L202.23,176l-26.15,55.08-26.16,55.08L146.65,293c-1,2.12-.65,5,1.62,6.16,2,1.06,5.08.65,6.16-1.62l26.15-55.08,26.15-55.08L233,132.06,259.16,77,285.32,21.9,288.59,15c1-2.12.66-4.95-1.62-6.15-2-1.06-5.08-.66-6.16,1.61Z"/><path d="M419.92,5.27,392.4,62.68,365,119.82l-27.52,57.41L310.1,234.37l-27.51,57.41-3.43,7.14a4.63,4.63,0,0,0,1.62,6.16c2,1.15,5.1.59,6.16-1.61l27.51-57.41,27.39-57.15,27.52-57.41,27.39-57.14L424.27,17l3.42-7.14a4.63,4.63,0,0,0-1.62-6.16c-2-1.15-5.1-.58-6.15,1.62Z"/><path d="M151.22,299.52l14.28-.43a4.5,4.5,0,0,0,0-9l-14.28.43a4.5,4.5,0,0,0,0,9Z"/><path d="M155.1,298.56l19.48,0a4.5,4.5,0,1,0,0-9l-19.48,0a4.5,4.5,0,1,0,0,9Z"/><path d="M286.28,307.38l20.77-.29a4.5,4.5,0,0,0,0-9l-20.77.29a4.5,4.5,0,0,0,0,9Z"/><path d="M182.74,296l21.74-55.55,21.64-55.29,21.74-55.55L269.5,74.34l21.74-55.55,2.69-6.88c.86-2.19-.94-5-3.14-5.53a4.63,4.63,0,0,0-5.54,3.14L263.51,65.07l-21.64,55.29-21.74,55.55L198.5,231.2l-21.74,55.55-2.69,6.87c-.86,2.2.94,5,3.14,5.54a4.63,4.63,0,0,0,5.53-3.14Z"/><path d="M313.64,302.42l23.53-57.54,23.53-57.55,23.53-57.54L407.87,72,431.4,14.42l2.9-7.09c.9-2.18-1-5-3.14-5.53-2.61-.6-4.58.8-5.53,3.14L402.1,62.48,378.57,120,355,177.57l-23.64,57.82-23.53,57.55L305,300c-.89,2.18,1,5,3.15,5.53,2.61.6,4.57-.8,5.53-3.14Z"/><path d="M243.63,98.66,215.51,160.5,187.4,222.35l-15.92,35c-1,2.14-.69,4.94,1.61,6.16,2,1,5.12.67,6.16-1.62l28.12-61.84,28.11-61.85,15.92-35c1-2.14.68-4.94-1.61-6.16-2-1-5.12-.67-6.16,1.62Z"/><path d="M217.57,161.32q-4.15,12.1-8.74,24.07-2.31,6-4.72,11.9c-.79,1.94-1.58,3.88-2.39,5.82l-.63,1.5-.27.64-.09.21-1.28,3q-10.11,23.53-22,46.25-6.69,12.79-13.91,25.3a4.5,4.5,0,1,0,7.77,4.54q12.93-22.38,24.13-45.69,11.29-23.51,20.78-47.82,5.3-13.56,10-27.33a4.54,4.54,0,0,0-3.15-5.54,4.6,4.6,0,0,0-5.53,3.15Z"/><path d="M170.15,258l-13.69,33.28c-1.26,3.05,2.52,6.71,5.54,5.53A47.81,47.81,0,0,0,190.23,266a45.38,45.38,0,0,0,1.83-12,4.5,4.5,0,0,0-9,0c0,.73,0,1.46-.1,2.19,0,.37-.05.73-.09,1.09s-.24,1.71-.06.61c-.25,1.5-.52,3-.91,4.46a41.21,41.21,0,0,1-1.4,4.33c-.08.23-.18.45-.26.68,0,.08-.27.64-.06.14s-.21.48-.28.63q-.5,1.08-1.05,2.13-1.07,2-2.33,3.92c-.44.66-.9,1.3-1.37,1.94s.36-.43-.19.24q-.39.51-.81,1a42.54,42.54,0,0,1-3.12,3.32c-.57.55-1.16,1.08-1.76,1.59l-.84.7-.42.34c.29-.24.42-.31,0,0a42.73,42.73,0,0,1-4.26,2.79c-.79.46-1.6.88-2.42,1.27-.38.19-.77.37-1.15.54l-.14.06c.59-.24-.47.18-.48.18l5.54,5.54,13.69-33.28c.89-2.18-1-5-3.15-5.53-2.62-.6-4.57.8-5.53,3.14Z"/><path d="M295.35,297.91l11.24-15.38-8.22-3.47L294.27,299a4.56,4.56,0,0,0,2.61,5.31c2.2.93,4.26,0,5.62-1.85A139.24,139.24,0,0,0,324,259.28q1.9-6.45,3.17-13.06a4.51,4.51,0,0,0-8.23-3.47l-19.18,29.86,7.77,4.54,20.77-41.35c1.06-2.1.63-5-1.61-6.16-2.05-1.08-5-.63-6.16,1.62l-20.77,41.35c-1.05,2.1-.62,5,1.62,6.15a4.59,4.59,0,0,0,6.15-1.61l19.18-29.85-8.22-3.47a135.08,135.08,0,0,1-6.36,22.5c-.33.88-.67,1.75-1,2.63-.18.46-.38.93-.57,1.4l-.11.26c.16-.38-.17.39-.2.46-.78,1.79-1.59,3.57-2.44,5.32q-2.55,5.27-5.56,10.3c-2.3,3.85-4.8,7.57-7.46,11.17l8.22,3.47L307,281.45a4.5,4.5,0,0,0-8.22-3.46l-11.24,15.38c-1.4,1.9-.39,5.1,1.61,6.15a4.62,4.62,0,0,0,6.16-1.61Z"/><path d="M327.63,249.51,346,200l5.27-14.19c.78-2.1-.71-4.51-2.61-5.31s-4.74-.22-5.62,1.84q-10.72,25.08-21.46,50.15c-.92,2.16-.71,4.92,1.62,6.16,1.93,1,5.17.69,6.15-1.62q10.74-25.08,21.46-50.15l-8.22-3.47-18.39,49.57L319,247.12a4.53,4.53,0,0,0,3.14,5.54,4.63,4.63,0,0,0,5.54-3.15Z"/><path d="M353.35,184,390.5,98.43,401,74.18c.93-2.15.71-4.93-1.62-6.16-1.94-1-5.15-.69-6.15,1.62L356.11,155.2l-10.53,24.25c-.94,2.16-.71,4.93,1.61,6.16,1.94,1,5.16.69,6.16-1.61Z"/><path d="M.05,154.08l.44,24.67a4.56,4.56,0,0,0,4.5,4.5,4.58,4.58,0,0,0,4.5-4.5l-.44-24.67a4.57,4.57,0,0,0-4.5-4.5,4.57,4.57,0,0,0-4.5,4.5Z"/><path d="M7,182.7l70.48-7.58,70.47-7.59,39.71-4.27c2.33-.25,4.62-1.89,4.5-4.5-.1-2.22-2-4.77-4.5-4.5l-70.48,7.59-70.48,7.58L7,173.7c-2.34.25-4.62,1.89-4.5,4.5.1,2.23,2,4.77,4.5,4.5Z"/><path d="M4.5,157.74l62.33,4a4.52,4.52,0,0,0,4.5-4.5,4.59,4.59,0,0,0-4.5-4.5l-62.33-4a4.53,4.53,0,0,0-4.5,4.5,4.61,4.61,0,0,0,4.5,4.5Z"/><path d="M16,153.28c-3.35-3.58-9.24-2.75-12.3.75-3.55,4.08-2.32,10.2,1.59,13.6s9.24,3.72,14.35,3.42l15.18-.89,60.74-3.59,34.35-2c2.35-.14,4.61-2,4.5-4.5a4.61,4.61,0,0,0-4.5-4.5A296.1,296.1,0,0,0,46.76,160q-11.43,2.25-22.67,5.41a4.5,4.5,0,0,0,2.39,8.68q9.85-2.76,19.88-4.85,5.12-1.07,10.28-1.94c1.57-.26,3.13-.51,4.7-.75l2.36-.35,1.41-.2.69-.1a290,290,0,0,1,40.81-2.53q11.65.09,23.28,1.13v-9l-55,3.25L20.11,162c-1.21.07-2.43.16-3.65.17-.6,0-1.19,0-1.79-.05l-.66,0c.48,0,.2,0-.11,0-.58-.13-1.14-.3-1.7-.47.08,0,.56.31.17.07l-.78-.44c-.08-.05-.54-.41-.13-.08s-.35-.36-.36-.36-.5-.48-.12-.09-.1-.15-.17-.26-.16-.32-.26-.46c.46.63.12.34,0-.05,0,0-.13-.51-.12-.51l.08.52c0-.43,0-.47,0-.1.08.52,0,.09,0,0l.08-.27-.22.56c.37-.75-.14.26-.22.21s.38-.42.39-.41-.79.46-.35.26c0,0,.63-.35.62-.36s-.86.35-.41.19c.7-.25.11.23-.25,0,0,0,.34,0,.41,0,.58,0-1-.2-.41,0s-.85-.44-.35-.16-.8-.75-.18-.09a4.54,4.54,0,0,0,6.37,0,4.6,4.6,0,0,0,0-6.36Z"/><path d="M8.33,161.37l33.75,2.78a4.53,4.53,0,0,0,4.5-4.5,4.62,4.62,0,0,0-4.5-4.5L8.33,152.37a4.53,4.53,0,0,0-4.5,4.5,4.61,4.61,0,0,0,4.5,4.5Z"/><path d="M7.18,175.19l23.31-3.09a5,5,0,0,0,3.19-1.32A4.56,4.56,0,0,0,35,167.6c-.09-2.18-2-4.83-4.5-4.5L7.18,166.19A4.92,4.92,0,0,0,4,167.51a4.57,4.57,0,0,0-1.32,3.18c.1,2.17,2,4.83,4.5,4.5Z"/><path d="M174.58,162.48l13-1.3a4.85,4.85,0,0,0,3.18-1.32,4.49,4.49,0,0,0,0-6.36,4.33,4.33,0,0,0-3.18-1.32l-13,1.3a4.88,4.88,0,0,0-3.18,1.31,4.62,4.62,0,0,0-1.32,3.19,4.51,4.51,0,0,0,1.32,3.18,4.41,4.41,0,0,0,3.18,1.32Z"/><path d="M189.47,156.68v-1.3a3.41,3.41,0,0,0-.39-1.73,3.3,3.3,0,0,0-.93-1.45,3.36,3.36,0,0,0-1.45-.93,3.31,3.31,0,0,0-1.73-.39l-1.2.16a4.43,4.43,0,0,0-2,1.16l-.71.91a4.52,4.52,0,0,0-.61,2.27v1.3a3.41,3.41,0,0,0,.39,1.73,3.36,3.36,0,0,0,.93,1.45,3.3,3.3,0,0,0,1.45.93,3.41,3.41,0,0,0,1.73.39l1.2-.16a4.52,4.52,0,0,0,2-1.16l.7-.91a4.43,4.43,0,0,0,.62-2.27Z"/><path d="M570.37,150.17l1.22,22.08a4.57,4.57,0,0,0,4.5,4.5c2.32-.1,4.63-2,4.5-4.5l-1.22-22.08a4.57,4.57,0,0,0-4.5-4.5c-2.32.1-4.64,2-4.5,4.5Z"/><path d="M575.84,173.27l-72.63-7.83-72.39-7.81-40.91-4.41c-2.35-.25-4.6,2.25-4.5,4.5a4.63,4.63,0,0,0,4.5,4.5l72.64,7.83,72.39,7.81,40.9,4.41c2.35.25,4.61-2.25,4.5-4.5-.11-2.66-2-4.23-4.5-4.5Z"/><path d="M443.19,161.08l83.37,7.31,23.33,2.05c2.35.21,4.6-2.22,4.5-4.5a4.61,4.61,0,0,0-4.5-4.5l-83.37-7.32-23.33-2c-2.35-.21-4.6,2.22-4.5,4.5a4.62,4.62,0,0,0,4.5,4.5Z"/><path d="M505.74,161.38l59.74,1.4a4.53,4.53,0,0,0,4.5-4.5,4.59,4.59,0,0,0-4.5-4.5l-59.74-1.4a4.55,4.55,0,0,0-4.5,4.5,4.6,4.6,0,0,0,4.5,4.5Z"/><path d="M548.7,168.78c4.08,3.05,8.84,6.08,14.18,5.46a12,12,0,0,0,7.8-3.59,11.73,11.73,0,0,0,2.93-8.29,24.45,24.45,0,0,0-2.11-8.4,4.84,4.84,0,0,0-2.07-2.69,4.6,4.6,0,0,0-3.46-.45l-5.54,1.64a4.5,4.5,0,1,0,2.4,8.68l5.53-1.64-5.54-3.14a31.86,31.86,0,0,1,1.29,3.54,18.79,18.79,0,0,1,.45,1.83l.09.53c-.1-.77-.12-.91-.07-.42,0,.26,0,.51,0,.77a2.63,2.63,0,0,1,0,1l.1-.7a3.86,3.86,0,0,1-.09.49,5.69,5.69,0,0,0-.28,1l.26-.62a3.75,3.75,0,0,1-.24.44,4,4,0,0,1-.27.44c.44-.54.55-.69.33-.43s-.37.39-.56.59c-.57.58.94-.63.08-.08-.23.15-.47.27-.71.4-.74.41,1-.31.21-.1-.3.09-.6.19-.91.26l-.47.09.73-.1a3.11,3.11,0,0,1-1,.06c-.24,0-.48,0-.72,0-1.23-.07.78.17,0,0a13.51,13.51,0,0,1-1.79-.49,2.74,2.74,0,0,1-.4-.15c-.32-.12-.18-.06.41.19,0-.15-.87-.42-1-.5-.59-.31-1.17-.66-1.73-1-1.14-.72-2.22-1.53-3.3-2.34a4.52,4.52,0,0,0-3.47-.45,4.61,4.61,0,0,0-2.69,2.07,4.55,4.55,0,0,0-.45,3.46,5.21,5.21,0,0,0,2.07,2.69Z"/><path d="M557.75,159.38l-3.68-.6-1.2,8.84,10.23.41-4.34-3.31a1.46,1.46,0,0,1,0,.2l-.16-1.2a1.34,1.34,0,0,1,0,.28l.16-1.19a1.29,1.29,0,0,1-.08.26l.46-1.07a1.94,1.94,0,0,1-.15.24l.71-.91a1.85,1.85,0,0,1-.28.28l.92-.7a2.38,2.38,0,0,1-.44.25l1.08-.45a2.07,2.07,0,0,1-.49.12l1.2-.16a1.41,1.41,0,0,1-.29,0l1.2.16a1.18,1.18,0,0,1-.27-.06l1.07.45a.8.8,0,0,1-.24-.13l.91.71a1.31,1.31,0,0,1-.2-.21l.7.91a1.62,1.62,0,0,1-.1-.18l.45,1.07a1.29,1.29,0,0,1-.08-.28l.16,1.19a1.2,1.2,0,0,1,0-.19l-.16,1.2a1.7,1.7,0,0,1,.1-.37l-.45,1.08a1.74,1.74,0,0,1,.15-.26l-.7.92a2,2,0,0,1,.36-.36l-.91.7a2.16,2.16,0,0,1,.36-.2l-1.07.45a1.74,1.74,0,0,1,.39-.11l-1.2.16h.29l-1.2-.16a1.28,1.28,0,0,1,.28.07l-1.08-.46a1.5,1.5,0,0,1,.25.15l-.91-.7a.67.67,0,0,1,.15.14,4.5,4.5,0,0,0,7.68-3.18,4.87,4.87,0,0,0-1.32-3.18,5.69,5.69,0,0,0-7.16-.74,6.11,6.11,0,0,0-2.62,3.39,5.45,5.45,0,0,0,3.93,6.86,6.2,6.2,0,0,0,4.33-.59,5.68,5.68,0,0,0,2.89-6.58,4.66,4.66,0,0,0-4.34-3.3l-10.23-.41a4.53,4.53,0,0,0-3.18,1.32,4.67,4.67,0,0,0-1.24,2.59,4.43,4.43,0,0,0,3.23,4.93l3.68.59a4.84,4.84,0,0,0,3.46-.45,4.51,4.51,0,0,0,1.62-6.16,4.38,4.38,0,0,0-2.69-2.06Z"/><path d="M229.38,159.67,233.8,149a4.48,4.48,0,0,0-.45-3.47,4.51,4.51,0,0,0-6.16-1.62l-.91.71a4.52,4.52,0,0,0-1.16,2l-4.42,10.72a4.53,4.53,0,0,0,.46,3.47,4.5,4.5,0,0,0,6.15,1.62l.92-.71a4.5,4.5,0,0,0,1.15-2Z"/><path d="M252.25,80l-6.68,17.68c-.83,2.21.93,5,3.15,5.54a4.62,4.62,0,0,0,5.53-3.15l6.68-17.68c.83-2.21-.92-5-3.14-5.54A4.62,4.62,0,0,0,252.25,80Z"/><path d="M134.27,164.55a4.5,4.5,0,1,0-4.5-4.5,4.55,4.55,0,0,0,4.5,4.5Z"/><path d="M13.88,167.55a4.5,4.5,0,1,0-4.5-4.5,4.55,4.55,0,0,0,4.5,4.5Z"/><path d="M174.2,292.44a4.54,4.54,0,0,0,4.5-4.5,4.5,4.5,0,1,0-4.5,4.5Z"/><path d="M195.49,245.62a20.85,20.85,0,0,1,0-2.85,5.32,5.32,0,0,0,.06-.56c0,1.15-.08.56,0,.21s.17-.93.28-1.39a23.37,23.37,0,0,1,.81-2.58c.27-.77-.32.66-.07.16.1-.22.19-.44.3-.65.21-.42.44-.84.67-1.25l-8.38-2.27-.12,1.15c-.1.93.16-1.07,0,.09-.1.72-.23,1.43-.38,2.14a38.24,38.24,0,0,1-1.05,3.91c-.21.64-.43,1.28-.67,1.91-.08.2-.48.88-.43,1.07l.23-.54-.24.53a38.89,38.89,0,0,1-2,3.84l8.39,2.27-.06-10.9a4.5,4.5,0,0,0-9,0l.06,10.9a4.57,4.57,0,0,0,3.3,4.34,4.63,4.63,0,0,0,5.08-2.07,44.13,44.13,0,0,0,5.92-18.64,4.51,4.51,0,0,0-3.31-4.34,4.63,4.63,0,0,0-5.08,2.07,24.54,24.54,0,0,0-3.29,13.45,4.58,4.58,0,0,0,4.5,4.5c2.33-.11,4.63-2,4.5-4.5Z"/><path d="M330.31,227.6v-1.5a3.31,3.31,0,0,0-.38-1.73,3.47,3.47,0,0,0-.94-1.45,3.32,3.32,0,0,0-1.44-.93,3.47,3.47,0,0,0-1.74-.39l-1.19.16a4.41,4.41,0,0,0-2,1.16l-.7.91a4.53,4.53,0,0,0-.62,2.27v1.5a3.41,3.41,0,0,0,.39,1.73,3.3,3.3,0,0,0,.93,1.45,3.36,3.36,0,0,0,1.45.93,3.44,3.44,0,0,0,1.73.39l1.2-.16a4.43,4.43,0,0,0,2-1.16l.71-.91a4.42,4.42,0,0,0,.61-2.27Z"/><path d="M344.73,189.17l0,.83h9l.12-8.34a4.5,4.5,0,0,0-7.68-3.18,4.78,4.78,0,0,0-1.32,3.18L344.7,190a4.49,4.49,0,0,0,4.5,4.5,4.56,4.56,0,0,0,3.18-1.32A4.93,4.93,0,0,0,353.7,190l0-.83a4.5,4.5,0,0,0-7.68-3.18,4.82,4.82,0,0,0-1.32,3.18Z"/><path d="M436.89,162.75a4.5,4.5,0,1,0-4.5-4.5,4.55,4.55,0,0,0,4.5,4.5Z"/><path d="M499,162.15a4.5,4.5,0,1,0-4.5-4.5,4.55,4.55,0,0,0,4.5,4.5Z"/><path d="M569,176.86a4.5,4.5,0,1,0-4.5-4.5,4.55,4.55,0,0,0,4.5,4.5Z"/><path d="M549.18,174.16a4.5,4.5,0,1,0-4.5-4.5,4.55,4.55,0,0,0,4.5,4.5Z"/><path d="M283.65,11.54q.19-.42.42-.81l.24-.37s.21-.27.05-.08,0,0,.06-.07a5.53,5.53,0,0,1,.64-.64c.11-.09.23-.1,0,0l.15-.11c.13-.09.27-.17.41-.25a.65.65,0,0,0,.17-.08c-.23.18-.2.08-.06,0l.41-.13.23,0c.18,0-.35,0-.07,0l.42,0h.23c.28,0-.26,0-.07,0l.4.1c.05,0,.31.12.08,0s0,0,.07,0,.5.34.16.07a1.61,1.61,0,0,0,1.06.44,1.5,1.5,0,0,0,1.06-2.56A4.91,4.91,0,0,0,287,6a5.22,5.22,0,0,0-2.64.5A7,7,0,0,0,281.06,10a1.67,1.67,0,0,0-.15,1.16,1.59,1.59,0,0,0,.69.9,1.52,1.52,0,0,0,2-.54Z"/><path d="M284.18,10.61a1.94,1.94,0,0,1,.05-.2c0-.05.09-.35,0-.12s0,0,0-.07a1.74,1.74,0,0,1,.1-.19c0-.07.27-.33.26-.4s-.19.22,0,0l.14-.16.2-.18s.2-.2,0-.06,0,0,.06,0l.18-.12a1.94,1.94,0,0,1,.47-.25c-.1,0-.2.08,0,0L286,8.8l.47-.1c.21,0-.26,0,0,0l.29,0h.48c.05,0,.21,0,.24,0-.18,0-.21,0-.1,0l.11,0a3.21,3.21,0,0,1,1,.29c-.1-.06-.18-.09,0,0l.21.11a5.43,5.43,0,0,1,.51.32,1.51,1.51,0,0,0,2-.54,1.54,1.54,0,0,0-.54-2.05,6.5,6.5,0,0,0-5.53-.9,5.62,5.62,0,0,0-3.8,3.88,1.5,1.5,0,0,0,2.9.79Z"/><path d="M286.55,8.69l.33,0-.4,0a7.32,7.32,0,0,1,1.75,0l-.4,0a6.89,6.89,0,0,1,1.6.43l-.36-.15a3.24,3.24,0,0,1,.71.38l-.3-.23a1.07,1.07,0,0,1,.19.18l-.24-.3a.86.86,0,0,1,.1.16l-.15-.36a1.21,1.21,0,0,1,.05.18l-.05-.4V8.6a1.61,1.61,0,0,0,.44,1.06,1.5,1.5,0,0,0,2.56-1.06,2.46,2.46,0,0,0-1.28-2,6.15,6.15,0,0,0-1.66-.67,8.21,8.21,0,0,0-3.69-.11,1.47,1.47,0,0,0-.89.69,1.51,1.51,0,0,0-.15,1.16,1.47,1.47,0,0,0,.69.89,1.64,1.64,0,0,0,1.15.15Z"/><path d="M423,5.67l.12-.37c-.07.2,0,.06,0,0a3.16,3.16,0,0,1,.33-.56c.06-.1.17-.22,0-.06l.26-.3c.15-.15.31-.3.48-.44-.17.14,0,0,.06,0a2.61,2.61,0,0,1,.28-.17,2.21,2.21,0,0,1,.34-.18c.25-.13-.1,0,.06,0s.42-.14.64-.18.3,0,.08,0l.41,0a5.27,5.27,0,0,1,.68,0c-.3,0,0,0,.07,0l.34.08.39.13c.25.09-.06,0,.08,0s.4.21.59.34l.08.06a3.85,3.85,0,0,1,.3.27s.25.3.15.16.1.16.11.19.16.4.08.12l.08.26c0,.15,0,.17,0,0s0-.09,0,.06l0-.14a1,1,0,0,1-.06.25,1.52,1.52,0,0,0,1,1.85A1.54,1.54,0,0,0,432,6a4.07,4.07,0,0,0-1.45-4.15A6.7,6.7,0,0,0,426.43.25a6.49,6.49,0,0,0-6.29,4.62,1.51,1.51,0,0,0,1,1.85,1.54,1.54,0,0,0,1.85-1Z"/><path d="M425.49,5.14l.13,0-.4,0a2.22,2.22,0,0,1,.63,0l-.4,0a2.58,2.58,0,0,1,.62.17l-.36-.15a2.7,2.7,0,0,1,.52.3l-.31-.23a2,2,0,0,1,.36.35,1.24,1.24,0,0,0,.48.31,1.17,1.17,0,0,0,.58.13,1.54,1.54,0,0,0,1.06-.44,1.47,1.47,0,0,0,.44-1.06l0-.4a1.44,1.44,0,0,0-.39-.66,3.53,3.53,0,0,0-.77-.67,3.62,3.62,0,0,0-.91-.43,4.2,4.2,0,0,0-1-.18,3.56,3.56,0,0,0-1,.09,1,1,0,0,0-.51.27,1.06,1.06,0,0,0-.39.42,1.09,1.09,0,0,0-.18.55,1.22,1.22,0,0,0,0,.6,1.49,1.49,0,0,0,.69.9l.36.15a1.55,1.55,0,0,0,.8,0Z"/><path d="M424,3.73c0,.2,0,.13,0,0s-.12.16,0,0,.11-.18.16-.26c-.08.12-.1.12,0,0l.18-.17c-.2.2,0,0,.06,0l.22-.13c.12-.06.25-.09.06,0l.24-.08s.39-.09.18,0,.13,0,.17,0a2.8,2.8,0,0,1,.41,0L426,3c-.19,0,.12,0,.18,0l.73.18c.45.13.9.29,1.34.45l.65.24c-.21-.08.09,0,.13.06l.27.14.32.19c.06,0,.18.14.06,0a2.61,2.61,0,0,1,.24.23c.16.16-.1-.16,0,0s.12.2.18.3c-.07-.13-.05-.11,0,0s0,.14,0,0c0,.07,0,.43,0,.13a1.5,1.5,0,1,0,2.89.79,3.92,3.92,0,0,0-1.72-4A11.85,11.85,0,0,0,427.56.28a6.15,6.15,0,0,0-4.27.21A4,4,0,0,0,421,3.73a1.5,1.5,0,0,0,1.5,1.5,1.56,1.56,0,0,0,1.5-1.5Z"/><path d="M388.32,157.84c0-.43,0-.87.05-1.3,0-.2,0-.39.05-.59,0-.39-.06.32,0-.07,0-.09,0-.19.05-.29s.09-.38.15-.57.1-.45.16-.47c-.08.19-.1.24-.05.13l.06-.13c0-.07.07-.15.11-.22s.22-.29.3-.45c-.06.13-.17.21,0,0l.17-.18a2,2,0,0,0,.22-.19c-.07.11-.22.16,0,0a2.45,2.45,0,0,0,.48-.26c-.08.08-.27.1,0,0l.24-.08a3.53,3.53,0,0,1,.54-.13c.23,0,.12,0,0,0l.31,0a10.61,10.61,0,0,1,1.13,0,1.51,1.51,0,0,0,1.5-1.5,1.53,1.53,0,0,0-1.5-1.5c-1.92-.05-4,.35-5.28,1.93s-1.55,3.76-1.59,5.85a1.5,1.5,0,0,0,3,0Z"/><path d="M385.45,157.29a3.46,3.46,0,0,0,0,1.6,3.35,3.35,0,0,0,.73,1.38,4.1,4.1,0,0,0,.59.5,2.12,2.12,0,0,0,.36.21,3.29,3.29,0,0,0,1.54.36,1.56,1.56,0,0,0,1.06-.44,1.24,1.24,0,0,0,.31-.48,1.27,1.27,0,0,0,.13-.58,1.54,1.54,0,0,0-.44-1.06,1.52,1.52,0,0,0-1.06-.44,1.56,1.56,0,0,1-.31,0l.4.06a2.54,2.54,0,0,1-.45-.13l.36.15a2,2,0,0,1-.4-.23l.3.23a1.82,1.82,0,0,1-.31-.31l.24.3a1.79,1.79,0,0,1-.22-.38l.15.36a2.64,2.64,0,0,1-.13-.46l.06.39a1.62,1.62,0,0,1,0-.44l-.06.4,0-.17a1.49,1.49,0,0,0-2.2-1.69,1.47,1.47,0,0,0-.69.89Z"/><path d="M392.76,149.71a7.79,7.79,0,0,0-5.68,2.1,1.5,1.5,0,0,0,2.12,2.12l.45-.38-.3.23a6.18,6.18,0,0,1,1.34-.78l-.36.15a6.77,6.77,0,0,1,1.64-.45l-.4.05a6.77,6.77,0,0,1,1.19,0,1.51,1.51,0,0,0,1.5-1.5,1.54,1.54,0,0,0-1.5-1.5Z"/><path d="M577.45,172.36l.09.51c-.07-.35,0,.07,0,.12,0,.3.05.61.06.91a12.89,12.89,0,0,1-.06,1.76c0,.07,0,.13,0,.19,0-.18,0-.18,0,0s0,.26-.07.39c-.05.3-.12.6-.19.89a14.68,14.68,0,0,1-.59,1.73,1.5,1.5,0,0,0,1,1.85,1.55,1.55,0,0,0,1.85-1,14.17,14.17,0,0,0,.77-8.09,1.51,1.51,0,0,0-1.84-1.05,1.54,1.54,0,0,0-1,1.85Z"/><path d="M577.52,172.66c.09,1.26.12,2.53.1,3.8,0,.29,0,.59,0,.88a1.11,1.11,0,0,1,0,.19c0-.2,0-.21,0,0s-.07.28-.1.42l0-.1-.09.18c-.12.25.2-.2,0,.06s.2-.1-.05,0-.11.07.09,0l-.19,0a1.51,1.51,0,0,0-1.05,1.85,1.54,1.54,0,0,0,1.84,1,3.2,3.2,0,0,0,2-1.46,5,5,0,0,0,.63-2.45,38.66,38.66,0,0,0-.08-4.44,1.53,1.53,0,0,0-1.5-1.5,1.51,1.51,0,0,0-1.5,1.5Z"/><path d="M5.13,183.16a25.51,25.51,0,0,0,8.62-1.73,1.55,1.55,0,0,0,1.05-1.85A1.52,1.52,0,0,0,13,178.53a23.75,23.75,0,0,1-4,1.19c-.33.07-.65.13-1,.18l-.53.08-.21,0c-.71.08-1.43.13-2.14.15a1.5,1.5,0,1,0,0,3Z"/><path d="M45,171.74a1.5,1.5,0,0,0,0-3,1.5,1.5,0,0,0,0,3Z"/><path d="M183.5,153.64a14,14,0,0,1,1.83,0l.45,0c-.29,0,.19.05.19.05a6.2,6.2,0,0,1,.87.24c.44.14-.2-.12.15,0l.34.17c.21.12.42.26.62.4-.28-.2,0,0,.08.08l.27.26.25.27s.26.36.07.08c.14.21.28.41.4.63s.12.22.17.33c.15.28-.06-.23.05.09a6.36,6.36,0,0,1,.21.71c0,.12.05.25.07.37,0-.26,0-.05,0,.09a5,5,0,0,1,0,.87c0-.22,0,0,0,.1s-.14.44-.08.29-.1.18-.13.22l-.1.16c.09-.12.11-.14,0-.06s-.32.3-.17.18-.23.12-.27.15a1.51,1.51,0,0,0-.54,2,1.53,1.53,0,0,0,2.05.54c2.93-1.49,2.68-5.66,1.09-8a7.24,7.24,0,0,0-3.08-2.64,10.36,10.36,0,0,0-4.78-.68,1.5,1.5,0,0,0,0,3Z"/><path d="M151.57,299.65c4.91-.18,9.82-.38,14.73-.52,2.44-.06,4.88-.1,7.32,0a13.12,13.12,0,0,0,6.21-.81c1.75-.81.22-3.4-1.52-2.59s-4.2.4-6.16.37c-2.27,0-4.55,0-6.83.09-4.58.15-9.16.33-13.75.49-1.92.07-1.93,3.07,0,3Z"/><path d="M150.78,299.68l14.57-.27,7.17-.14c2.2,0,4.56.12,6.66-.65,1.79-.66,1-3.56-.8-2.89-2,.73-4.28.51-6.36.55l-7.16.13-14.08.27c-1.93,0-1.94,3,0,3Z"/><path d="M173.25,299.25c.18,0,.17,0,0,0l.25,0,.49,0c.29,0,.58,0,.86,0,.6,0,1.19.11,1.79.12a5.93,5.93,0,0,0,3.53-.92,1.5,1.5,0,0,0-1.51-2.59,3.37,3.37,0,0,1-.35.22l-.18.1.12-.05c-.25.08-.49.14-.75.2s.34,0,0,0l-.42,0c-.25,0-.49,0-.74,0a16.92,16.92,0,0,0-3.83,0,1.51,1.51,0,0,0-1.05,1.85,1.54,1.54,0,0,0,1.84,1.05Z"/><path d="M347.89,195.78a1.5,1.5,0,0,0,0-3,1.5,1.5,0,0,0,0,3Z"/><path d="M307.54,280a1.5,1.5,0,0,0,0-3,1.5,1.5,0,0,0,0,3Z"/><path d="M304.9,299.92a1.5,1.5,0,0,0,0-3,1.5,1.5,0,0,0,0,3Z"/><path d="M278.83,300.75c-.72,3.6,2.4,6,5.64,6.52,3.63.53,7.31-.12,10.89-.72a1.52,1.52,0,0,0,1.05-1.85,1.55,1.55,0,0,0-1.85-1.05,37.79,37.79,0,0,1-8.42.79,6.64,6.64,0,0,1-3.3-.84,2.17,2.17,0,0,1-1.12-2.06,1.53,1.53,0,0,0-1.05-1.84,1.51,1.51,0,0,0-1.84,1.05Z"/><path d="M310.67,301.68l-.17.53c0,.08-.06.17-.1.26s-.14.36-.07.21-.05.11-.07.14l-.12.24a4.48,4.48,0,0,1-.28.47c-.12.19.14-.16,0,0l-.22.24-.2.17c.12-.09.08-.07,0,0a2.63,2.63,0,0,1-.8.22,15,15,0,0,1-5.59-.79,1.52,1.52,0,0,0-1.85,1.05,1.54,1.54,0,0,0,1.05,1.84,20.5,20.5,0,0,0,3.72.78,12.35,12.35,0,0,0,3.54,0c2.37-.41,3.42-2.52,4.08-4.59a1.52,1.52,0,0,0-1-1.85,1.55,1.55,0,0,0-1.85,1.05Z"/></g></g></svg>